:FULLY-SPECIFIED
:FORCE-ALL-JOINTS-BE-3DOF
:DEGREES
324
root 9.73391 16.3704 9.21134 7.1738 9.6251 4.45539
lfemur 24.5605 4.40494 -22.1861
ltibia -1.99153e-14 0 0
lfoot -6.94192 -5.21253 0
ltoes -14.4009 0 0
rfemur -43.023 1.47358 13.0878
rtibia 35.0978 0 0
rfoot -7.38051 -2.10994 0
rtoes -27.2175 0 0
lowerback -7.89174 -4.807 -6.43754
upperback -1.09894 -5.9126 1.75916
thorax 4.1077 -3.05193 4.73229
lowerneck -19.2989 -5.27167 -13.1543
upperneck 21.3262 -6.73981 13.1786
head 11.0058 -2.63628 6.01016
lclavicle 5.97715e-14 -2.23375e-14 0
lhumerus -22.2629 -40.5083 99.0488
lradius 41.4543 0 0
lwrist 9.93897 0 0
lhand -5.15473 -24.447 0
lfingers 7.12502 0 0
lthumb 20.645 4.47758 0
rclavicle 5.97715e-14 -2.23375e-14 0
rhumerus -50.9231 5.00164 -82.7756
rradius 30.6444 0 0
rwrist -16.2648 0 0
rhand -29.3075 -23.198 0
rfingers 7.12502 0 0
rthumb -2.64872 -53.1637 0
325
root 9.71446 16.357 9.40526 7.03589 9.62955 4.06667
lfemur 25.2445 4.60685 -21.3812
ltibia -2.22639e-14 0 0
lfoot -5.61253 -5.23758 0
ltoes -15.9721 0 0
rfemur -42.9554 1.41571 13.8219
rtibia 36.0984 0 0
rfoot -5.89992 -1.43473 0
rtoes -25.9582 0 0
lowerback -7.84496 -4.75946 -6.09206
upperback -1.11204 -5.88748 1.8652
thorax 4.04119 -3.033 4.65889
lowerneck -19.2679 -5.23091 -13.2079
upperneck 21.2002 -6.68494 13.2864
head 10.9512 -2.60437 6.0651
lclavicle 5.91136e-14 -2.46493e-14 0
lhumerus -22.9838 -40.1631 99.6052
lradius 41.1032 0 0
lwrist 9.53411 0 0
lhand -5.41681 -24.6079 0
lfingers 7.12502 0 0
lthumb 20.3929 4.34126 0
rclavicle 5.91136e-14 -2.46493e-14 0
rhumerus -50.8726 5.02672 -82.7013
rradius 30.5771 0 0
rwrist -16.2647 0 0
rhand -29.1207 -23.2765 0
rfingers 7.12502 0 0
rthumb -2.46829 -53.2419 0
326
root 9.6884 16.3582 9.5961 6.91496 9.54935 3.61199
lfemur 26.0489 4.86582 -20.5044
ltibia -0.335925 0 0
lfoot -3.91618 -5.0807 0
ltoes -16.9903 0 0
rfemur -42.8639 1.45189 14.672
rtibia 37.104 0 0
rfoot -5.14278 -0.88849 0
rtoes -24.5302 0 0
lowerback -7.83914 -4.70092 -5.71628
upperback -1.1308 -5.84833 1.99375
thorax 3.9898 -3.00727 4.5906
lowerneck -19.2517 -5.17242 -13.1986
upperneck 21.1204 -6.60986 13.3292
head 10.9083 -2.56493 6.08889
lclavicle 5.71011e-14 -2.2078e-14 0
lhumerus -23.7498 -39.6219 100.146
lradius 40.6717 0 0
lwrist 9.2127 0 0
lhand -5.81026 -24.7542 0
lfingers 7.12502 0 0
lthumb 20.0145 4.23204 0
rclavicle 5.71011e-14 -2.2078e-14 0
rhumerus -50.699 5.07381 -82.6161
rradius 30.3737 0 0
rwrist -16.0146 0 0
rhand -28.6005 -23.6586 0
rfingers 7.12502 0 0
rthumb -1.96583 -53.6245 0
327
root 9.66234 16.3594 9.78694 6.79729 9.38371 3.06929
lfemur 27.0342 5.18108 -19.5337
ltibia -1.07496 0 0
lfoot -1.85529 -4.74927 0
ltoes -17.7279 0 0
rfemur -42.7666 1.62501 15.6241
rtibia 38.1439 0 0
rfoot -4.91094 -0.472692 0
rtoes -22.7642 0 0
lowerback -7.86895 -4.62746 -5.28196
upperback -1.15212 -5.79334 2.15125
thorax 3.95136 -2.9734 4.5191
lowerneck -19.2391 -5.09224 -13.1421
upperneck 21.0642 -6.50829 13.3265
head 10.867 -2.51454 6.09199
lclavicle 5.34379e-14 -1.54316e-14 0
lhumerus -24.567 -38.9216 100.691
lradius 40.1648 0 0
lwrist 8.9678 0 0
lhand -6.35488 -24.8894 0
lfingers 7.12502 0 0
lthumb 19.4908 4.14842 0
rclavicle 5.34379e-14 -1.54316e-14 0
rhumerus -50.4233 5.14737 -82.5188
rradius 30.0644 0 0
rwrist -15.5832 0 0
rhand -27.7804 -24.2791 0
rfingers 7.12502 0 0
rthumb -1.17379 -54.2461 0
328
root 9.63629 16.3606 9.97778 6.68459 9.18616 2.48668
lfemur 27.9823 5.52534 -18.5179
ltibia -1.81399 0 0
lfoot 0.372604 -4.32067 0
ltoes -18.1915 0 0
rfemur -42.6356 1.86902 16.6191
rtibia 39.1614 0 0
rfoot -5.06122 -0.154934 0
rtoes -20.8472 0 0
lowerback -7.91326 -4.5508 -4.82638
upperback -1.17594 -5.73525 2.323
thorax 3.91761 -2.938 4.44986
lowerneck -19.2344 -5.00366 -13.0554
upperneck 21.0285 -6.39735 13.294
head 10.831 -2.46048 6.08062
lclavicle 4.86413e-14 -6.70898e-15 0
lhumerus -25.3889 -38.0838 101.211
lradius 39.5734 0 0
lwrist 8.75652 0 0
lhand -6.98912 -25.0135 0
lfingers 7.12502 0 0
lthumb 18.8808 4.08419 0
rclavicle 4.86413e-14 -6.70898e-15 0
rhumerus -50.0817 5.23042 -82.4122
rradius 29.7052 0 0
rwrist -15.0497 0 0
rhand -26.8247 -25.0226 0
rfingers 7.12502 0 0
rthumb -0.25071 -54.991 0
329
root 9.61023 16.3618 10.1686 6.57855 9.01026 1.91223
lfemur 28.6751 5.87133 -17.5061
ltibia -2.14992 0 0
lfoot 2.57 -3.87228 0
ltoes -18.3875 0 0
rfemur -42.4429 2.11783 17.5979
rtibia 40.1 0 0
rfoot -5.45049 0.0971865 0
rtoes -18.966 0 0
lowerback -7.95097 -4.48264 -4.38682
upperback -1.20224 -5.68679 2.49429
thorax 3.8803 -2.90765 4.38837
lowerneck -19.2418 -4.92001 -12.9556
upperneck 21.0104 -6.29413 13.2475
head 10.8039 -2.41006 6.06098
lclavicle 4.32287e-14 2.09093e-15 0
lhumerus -26.1689 -37.13 101.68
lradius 38.8878 0 0
lwrist 8.53598 0 0
lhand -7.65143 -25.1265 0
lfingers 7.12502 0 0
lthumb 18.2438 4.03316 0
rclavicle 4.32287e-14 2.09093e-15 0
rhumerus -49.7104 5.306 -82.2995
rradius 29.3522 0 0
rwrist -14.493 0 0
rhand -25.8974 -25.7737 0
rfingers 7.12502 0 0
rthumb 0.644867 -55.7437 0
330
root 9.58417 16.363 10.3595 6.48087 8.90954 1.39405
lfemur 28.8946 6.19176 -16.5471
ltibia -1.67962 0 0
lfoot 4.53938 -3.48148 0
ltoes -18.3224 0 0
rfemur -42.1608 2.30536 18.5016
rtibia 40.9027 0 0
rfoot -5.93557 0.316072 0
rtoes -17.3077 0 0
lowerback -7.96097 -4.4347 -4.00054
upperback -1.23095 -5.66069 2.65039
thorax 3.83115 -2.88896 4.34012
lowerneck -19.2657 -4.85461 -12.8596
upperneck 21.0071 -6.21574 13.2026
head 10.7895 -2.37056 6.03925
lclavicle 3.77177e-14 8.96926e-15 0
lhumerus -26.8607 -36.0817 102.069
lradius 38.0989 0 0
lwrist 8.26327 0 0
lhand -8.28028 -25.2284 0
lfingers 7.12502 0 0
lthumb 17.639 3.98912 0
rclavicle 3.77177e-14 8.96926e-15 0
rhumerus -49.3454 5.35713 -82.1835
rradius 29.0612 0 0
rwrist -13.992 0 0
rhand -25.1628 -26.4172 0
rfingers 7.12502 0 0
rthumb 1.3544 -56.3887 0
331
root 9.55811 16.3642 10.5503 6.39325 8.93754 0.980213
lfemur 28.4227 6.45934 -15.6899
ltibia 8.26944e-14 0 0
lfoot 6.08322 -3.22564 0
ltoes -18.0026 0 0
rfemur -41.7613 2.36554 19.2712
rtibia 41.5131 0 0
rfoot -6.37333 0.534125 0
rtoes -16.0592 0 0
lowerback -7.92215 -4.41869 -3.70483
upperback -1.26205 -5.66969 2.7766
thorax 3.76192 -2.88852 4.31058
lowerneck -19.3102 -4.82077 -12.7845
upperneck 21.0156 -6.17929 13.1749
head 10.7916 -2.34926 6.02165
lclavicle 3.26255e-14 1.19271e-14 0
lhumerus -27.4178 -34.9605 102.352
lradius 37.197 0 0
lwrist 7.89553 0 0
lhand -8.8141 -25.3194 0
lfingers 7.12502 0 0
lthumb 17.1254 3.94587 0
rclavicle 3.26255e-14 1.19271e-14 0
rhumerus -49.0229 5.36685 -82.0674
rradius 28.8882 0 0
rwrist -13.6259 0 0
rhand -24.7849 -26.8377 0
rfingers 7.12502 0 0
rthumb 1.71933 -56.8105 0
332
root 9.53671 16.3937 10.7203 6.31493 9.14336 0.686053
lfemur 27.0581 6.68529 -14.9074
ltibia 3.2891 0 0
lfoot 7.16387 -3.20581 0
ltoes -17.2127 0 0
rfemur -41.2142 2.25704 19.893
rtibia 41.9154 0 0
rfoot -6.84338 0.738051 0
rtoes -15.2768 0 0
lowerback -7.8235 -4.4536 -3.51981
upperback -1.30036 -5.73768 2.87223
thorax 3.66588 -2.91834 4.30846
lowerneck -19.3858 -4.8203 -12.7157
upperneck 21.0533 -6.18804 13.1476
head 10.8177 -2.34805 5.99933
lclavicle 2.73081e-14 9.75151e-15 0
lhumerus -27.8214 -33.6922 102.52
lradius 36.125 0 0
lwrist 7.39246 0 0
lhand -9.28203 -25.4417 0
lfingers 7.12502 0 0
lthumb 16.675 3.86292 0
rclavicle 2.73081e-14 9.75151e-15 0
rhumerus -48.7459 5.32094 -81.9399
rradius 28.8302 0 0
rwrist -13.3476 0 0
rhand -24.8332 -27.0532 0
rfingers 7.12502 0 0
rthumb 1.67263 -57.0271 0
333
root 9.51531 16.4232 10.8904 6.2444 9.49398 0.476159
lfemur 24.9349 6.89369 -14.1552
ltibia 7.94522 0 0
lfoot 7.93179 -3.38029 0
ltoes -15.9044 0 0
rfemur -40.5356 2.02445 20.4114
rtibia 42.152 0 0
rfoot -7.47618 0.89927 0
rtoes -14.8223 0 0
lowerback -7.67971 -4.53385 -3.41968
upperback -1.34688 -5.85926 2.9489
thorax 3.5483 -2.97555 4.33111
lowerneck -19.4912 -4.84291 -12.6369
upperneck 21.1261 -6.22897 13.1048
head 10.8663 -2.36146 5.96555
lclavicle 2.12228e-14 3.79901e-15 0
lhumerus -28.1051 -32.2447 102.593
lradius 34.8788 0 0
lwrist 6.78033 0 0
lhand -9.73911 -25.6038 0
lfingers 7.12502 0 0
lthumb 16.2349 3.73713 0
rclavicle 2.12228e-14 3.79901e-15 0
rhumerus -48.486 5.23014 -81.7963
rradius 28.8416 0 0
rwrist -13.0844 0 0
rhand -25.1903 -27.1594 0
rfingers 7.12502 0 0
rthumb 1.32772 -57.1346 0
334
root 9.4939 16.4527 11.0604 6.18222 9.91978 0.322525
lfemur 22.3384 7.07653 -13.4557
ltibia 13.4076 0 0
lfoot 8.4717 -3.61235 0
ltoes -14.3349 0 0
rfemur -39.7676 1.73058 20.8547
rtibia 42.2528 0 0
rfoot -8.2048 1.02725 0
rtoes -14.5906 0 0
lowerback -7.50821 -4.63432 -3.37284
upperback -1.39582 -6.00319 3.01039
thorax 3.4189 -3.04441 4.367
lowerneck -19.613 -4.88376 -12.5618
upperneck 21.2137 -6.29472 13.0636
head 10.9276 -2.38579 5.9297
lclavicle 1.50389e-14 -4.07507e-15 0
lhumerus -28.3006 -30.7028 102.587
lradius 33.5292 0 0
lwrist 6.11604 0 0
lhand -10.1627 -25.7548 0
lfingers 7.12502 0 0
lthumb 15.827 3.61833 0
rclavicle 1.50389e-14 -4.07507e-15 0
rhumerus -48.2324 5.1149 -81.6496
rradius 28.9152 0 0
rwrist -12.8771 0 0
rhand -25.7401 -27.158 0
rfingers 7.12502 0 0
rthumb 0.796756 -57.1344 0
335
root 9.4725 16.4823 11.2304 6.12899 10.3511 0.197146
lfemur 19.5538 7.2258 -12.8318
ltibia 19.1153 0 0
lfoot 8.8683 -3.76528 0
ltoes -12.7617 0 0
rfemur -38.9521 1.43825 21.2511
rtibia 42.2479 0 0
rfoot -8.96233 1.13147 0
rtoes -14.4767 0 0
lowerback -7.32643 -4.72988 -3.34768
upperback -1.4414 -6.13829 3.06048
thorax 3.28738 -3.10919 4.40457
lowerneck -19.7378 -4.93803 -12.5046
upperneck 21.2956 -6.37796 13.0411
head 10.9918 -2.41734 5.90114
lclavicle 9.42592e-15 -1.20154e-14 0
lhumerus -28.4394 -29.1512 102.517
lradius 32.1467 0 0
lwrist 5.45651 0 0
lhand -10.5302 -25.844 0
lfingers 7.12502 0 0
lthumb 15.473 3.55636 0
rclavicle 9.42592e-15 -1.20154e-14 0
rhumerus -47.9745 4.99566 -81.5125
rradius 29.0433 0 0
rwrist -12.7661 0 0
rhand -26.3663 -27.0505 0
rfingers 7.12502 0 0
rthumb 0.191906 -57.0279 0
336
root 9.4511 16.5118 11.4005 6.08528 10.7184 0.0720154
lfemur 16.8662 7.3335 -12.3062
ltibia 24.5077 0 0
lfoot 9.20628 -3.70235 0
ltoes -11.4419 0 0
rfemur -38.131 1.21027 21.6288
rtibia 42.1674 0 0
rfoot -9.68183 1.22141 0
rtoes -14.3757 0 0
lowerback -7.1518 -4.79538 -3.31259
upperback -1.47783 -6.23331 3.10293
thorax 3.16347 -3.15417 4.4323
lowerneck -19.8525 -5.00088 -12.4791
upperneck 21.3516 -6.47135 13.0545
head 11.049 -2.45239 5.88925
lclavicle 5.05328e-15 -1.81667e-14 0
lhumerus -28.5534 -27.6745 102.399
lradius 30.8022 0 0
lwrist 4.85865 0 0
lhand -10.819 -25.8205 0
lfingers 7.12502 0 0
lthumb 15.1948 3.60106 0
rclavicle 5.05328e-15 -1.81667e-14 0
rhumerus -47.7012 4.89288 -81.3978
rradius 29.2187 0 0
rwrist -12.7922 0 0
rhand -26.9529 -26.8385 0
rfingers 7.12502 0 0
rthumb -0.374672 -56.8166 0
